<svg width="48" height="48" viewBox="0 0 48 48" fill="none" xmlns="http://www.w3.org/2000/svg">
<g id="inverted commas">
<path id="Vector" d="M12.3015 26.2027C14.6203 25.284 16.4797 25.5246 17.8797 26.9246C19.2797 28.3246 19.6953 30.5559 19.1265 33.6183C18.689 35.8934 17.7265 37.6433 16.239 38.8683C14.7953 40.0496 13.1109 40.6402 11.1859 40.6402C8.5609 40.6402 6.7453 39.634 5.73903 37.6214C4.73279 35.5652 4.53592 32.809 5.14842 29.3527C5.49841 27.4715 6.06716 25.5684 6.85465 23.6433C7.64218 21.7183 8.69218 19.7496 10.0046 17.7371C11.3172 15.7246 13.0234 13.9746 15.1234 12.4871C17.2234 10.9996 19.5421 10.0371 22.0797 9.59961L21.4234 16.5558C19.2797 16.9934 17.3765 18.109 15.7141 19.9027C14.0515 21.6527 12.914 23.7527 12.3015 26.2027ZM32.0546 26.2027C34.3734 25.284 36.2328 25.5246 37.6328 26.9246C39.0328 28.3246 39.4484 30.5559 38.8797 33.6183C38.4421 35.8934 37.4796 37.6433 35.9922 38.8683C34.5484 40.0496 32.864 40.6402 30.939 40.6402C28.3141 40.6402 26.4984 39.634 25.4922 37.6214C24.4859 35.5652 24.2891 32.809 24.9015 29.3527C25.2516 27.4715 25.8203 25.5684 26.6078 23.6433C27.3953 21.7183 28.4453 19.7496 29.7578 17.7371C31.0703 15.7246 32.7765 13.9746 34.8765 12.4871C36.9765 10.9996 39.2953 10.0371 41.8328 9.59961L41.1765 16.5558C39.0328 16.9934 37.1297 18.109 35.4672 19.9027C33.8047 21.6527 32.6672 23.7527 32.0546 26.2027Z" fill="#F6F6F6"/>
</g>
</svg>
